<svg xmlns="http://www.w3.org/2000/svg" width="123.333" height="174.084" viewBox="0 0 123.333 174.084">
  <g id="css" transform="translate(-0.445)">
    <path id="Path_149" data-name="Path 149" d="M62.036,210.638,11.669,196.656.445,70.766H123.778l-11.236,125.87-50.506,14Z" transform="translate(0 -36.554)" fill="#264de4"/>
    <path id="Path_150" data-name="Path 150" d="M168.811,199.62l9.6-107.562H128V210.934l40.811-11.314Z" transform="translate(-65.889 -47.552)" fill="#2965f1"/>
    <path id="Path_151" data-name="Path 151" d="M53.669,188.636l1.384,15.44H89.6v-15.44Z" transform="translate(-27.493 -97.44)" fill="#ebebeb"/>
    <path id="Path_152" data-name="Path 152" d="M47.917,124l1.4,15.44H86.633V124Z" transform="translate(-24.522 -64.05)" fill="#ebebeb"/>
    <path id="Path_153" data-name="Path 153" d="M91.82,253.481l-.068.018-17.2-4.643-1.1-12.314h-15.5l2.163,24.243,31.627,8.78.071-.02V253.481Z" transform="translate(-29.708 -122.186)" fill="#ebebeb"/>
    <path id="Path_154" data-name="Path 154" d="M60.483,0h18.7V7.82H68.3v7.82h10.88v7.82h-18.7V0Z" transform="translate(-31.013)" fill="#fff"/>
    <path id="Path_155" data-name="Path 155" d="M106.9,0h18.7V6.8h-10.88V8.16H125.6V23.8H106.9V16.66h10.88V15.3H106.9V0Z" transform="translate(-54.99)" fill="#fff"/>
    <path id="Path_156" data-name="Path 156" d="M153.319,0h18.7V6.8h-10.88V8.16h10.88V23.8h-18.7V16.66H164.2V15.3h-10.88V0Z" transform="translate(-78.967)" fill="#fff"/>
    <path id="Path_157" data-name="Path 157" d="M163.78,155.246,166.567,124H127.89v15.44h21.756l-1.4,15.811H127.89v15.44H146.9L145.11,190.71l-17.22,4.648v16.063l31.652-8.772.233-2.609,3.628-40.648.377-4.146Z" transform="translate(-65.832 -64.05)" fill="#fff"/>
  </g>
</svg>
