<svg xmlns="http://www.w3.org/2000/svg" width="338.828" height="77" viewBox="0 0 338.828 77">
  <g id="jquey" transform="translate(-234.981 7.922)">
    <g id="Group_41" data-name="Group 41" transform="translate(234.981 -7.922)">
      <path id="Path_178" data-name="Path 178" d="M471.711,8.646l14.227.078s-26.45,35.841-28.61,38.762a16.643,16.643,0,0,0-2.307,3.23,72.186,72.186,0,0,0-2.769,10.152l-13.017.064s2.026-7.268,1.942-11.14c-.074-3.382-1.8-6.76-2.768-10.152C437.43,36.209,436.1,29.49,436.1,29.49h13.383l1.846,7.383L471.711,8.646" transform="translate(-147.11 -2.955)" fill="#fff" fill-rule="evenodd"/>
      <path id="Path_179" data-name="Path 179" d="M427.273,19.451c2.625,1.583,4.237,10.314,4.237,10.314s-13.738.2-21.213.2h-6.46L395.99,64.115h-12s7.467-37.11,9.229-43.838c.572-2.178,3.913-1.8,9.557-1.8h9.012c5.819,0,12.621-.743,15.482.978" transform="translate(-129.611 -6.202)" fill="#fff" fill-rule="evenodd"/>
      <path id="Path_180" data-name="Path 180" d="M348.394,35.826a7.189,7.189,0,0,0-1.269-4.73c-1.4-2.164-2.7-2.667-6.391-2.782-10.424-.328-10.221,7.4-10.221,7.4l17.881.115ZM359.7,26.98c1.528,5.51-1.384,18.458-1.384,18.458s-15.205-.254-23.534,0c-2.59.079-5.689-.281-6.46.923-1.085,1.688.4,4.287,1.652,5.385,1.445,1.264,4.259,1.408,5.27,1.537,6.76.859,20.908.221,20.908.221L353.7,64.357s-19.994,1-29.994-1.384A10.179,10.179,0,0,1,318.63,60.2c-.341-.369-.637-.872-.96-1.305a12.131,12.131,0,0,1-1.347-2.386c-2.284-6.086.268-17.747,2.769-24,.29-.724.655-1.642,1.039-2.423.48-.973.885-2.072,1.269-2.653.258-.4.577-.66.845-1.038a15.461,15.461,0,0,1,1-1.268,19.007,19.007,0,0,1,3.23-2.769c4.167-3.12,11.707-5.542,20.766-4.615,3.41.35,8.56,1.569,11.075,5.076.673.937,1.006,2.8,1.384,4.153Z" transform="translate(-106.586 -5.946)" fill="#fff" fill-rule="evenodd"/>
      <path id="Path_181" data-name="Path 181" d="M281.9,18.456l11.633-.069s-6.484,30.756-9.788,45.753H270.36c-9.353,0-17.683,1.158-21.227-5.538-3.438-6.5-.157-17.193,1.384-24.457C251.607,29,253.9,18.5,253.9,18.5l12.053-.111s-3.406,16.358-4.823,24.526c-.507,2.926-1.554,5.681-.461,7.845,1.038,2.059,2.492,2.206,6.921,2.307,1.4.033,6,0,6,0L281.9,18.456" transform="translate(-83.812 -6.227)" fill="#fff" fill-rule="evenodd"/>
      <path id="Path_182" data-name="Path 182" d="M197.286,34.457c1.218-4.328,2.995-9.021,2.769-12.921-.244-4.171-3.742-7.969-6-8.767a15.371,15.371,0,0,0-15.69,3.691c-3.272,3.545-4.379,7.684-5.538,13.383-.862,4.231-1.569,8.7,0,12,2.778,5.833,11.44,4.559,20.766,4.615,1.384-3.71,2.528-7.877,3.691-12Zm16.151-17.074c1.329,9.663-3.77,20.327-7.282,29.6,3.581.323,6.719-.05,6.945.217.235.347-2.4,11.071-3.319,11.1-2.842.074-12.26.152-16.187.152-12.815,0-24.8.835-30.917-5.537a20.1,20.1,0,0,1-4.615-10.152c-.692-5.215.175-10.955,1.385-15.689a47.484,47.484,0,0,1,4.615-12C169.447,5.676,178.814-1.3,194.517.309a29.264,29.264,0,0,1,10.152,3.23c.189.111.849.637,1,.73,3.692,2.349,7.056,7.955,7.767,13.114Z" transform="translate(-53.652 -0.078)" fill="#fff" fill-rule="evenodd"/>
      <path id="Path_183" data-name="Path 183" d="M148.463,18.546c-.775,3.53-1.55,7.531-2.367,11.02H133.175c1-3.867,1.767-7.711,2.769-11.075,4.134,0,7.979.055,12.519.055" transform="translate(-45.376 -6.261)" fill="#fff" fill-rule="evenodd"/>
      <path id="Path_184" data-name="Path 184" d="M122.232,40.029h12.459c-1.629,9.017-4.854,23.562-7.383,33.686-1.583,6.336-2.639,10.96-6.922,14.305-.383.3-.6.157-.923.462-.79.752-4.44,1.625-6.46,1.846a92.883,92.883,0,0,1-11.038-.037c1.057-3.862,2.252-8.5,3.194-11.961,9.842,1.191,10.092-8.112,12-17.074,1.1-5.178,4.444-19.15,5.076-21.227" transform="translate(-34.895 -13.495)" fill="#fff" fill-rule="evenodd"/>
      <g id="Group_40" data-name="Group 40" transform="translate(0 6.203)">
        <path id="Path_185" data-name="Path 185" d="M59.246,49.02l-.267.692c-4.55,8.86-12.612,14.3-24.111,14.536a33.7,33.7,0,0,1-13.844-2.769A35.759,35.759,0,0,1,4.413,45.789C-.346,36.574-1.2,23.755,8.69,14.18c.152,0-1.2,2.076-1.048,2.076l-.272.886C.241,39.462,22.205,58.59,43.557,56.4A28.045,28.045,0,0,0,59.246,49.02" transform="translate(-0.981 -5.154)" fill="#21609b" fill-rule="evenodd"/>
        <path id="Path_186" data-name="Path 186" d="M55.2,36.668a20.423,20.423,0,0,0,14.3-6C66.6,38.048,58.179,42.791,46.891,41.283c-9.45-1.264-18.453-10.775-19.381-20.3-.678-6.935,1.739-11.074,5.722-16.1A16.842,16.842,0,0,0,31.2,10.827c-1.513,15,11.984,25.763,24,25.841" transform="translate(-9.852 -2.032)" fill="#21609b" fill-rule="evenodd"/>
        <path id="Path_187" data-name="Path 187" d="M76.715,16.593c-.835,1.915-5.643,5.533-7.766,5.985-8.408,1.791-13.792-2.2-16.612-6.733a20.763,20.763,0,0,1-1.334-3C49.909,9.127,50.412,3.5,53.675.589a15.321,15.321,0,0,0-.609,8.075,17.925,17.925,0,0,0,2.224,4.859,12.778,12.778,0,0,0,5.076,4.486,13.5,13.5,0,0,0,2.552,1.223c2.118.623,6.589,2.266,13.8-2.64" transform="translate(-17.605 -0.589)" fill="#21609b" fill-rule="evenodd"/>
      </g>
    </g>
  </g>
</svg>
