<svg xmlns="http://www.w3.org/2000/svg" width="395.826" height="319.374" viewBox="0 0 395.826 319.374">
  <g id="keyboard_layout" data-name="keyboard layout" transform="translate(0)">
    <g id="Group_20" data-name="Group 20">
      <path id="keyboard" d="M826.5,660.913v198.8a18.808,18.808,0,0,0,18.807,18.807H1148.35a17.011,17.011,0,0,0,17.011-17.011V668.03a12.53,12.53,0,0,0-12.53-12.53H831.913a5.414,5.414,0,0,0-5.413,5.413Z" transform="translate(-798.305 -559.146)" fill="#efefed"/>
      <path id="mousepad" d="M979.8,790.5h53.59a8.12,8.12,0,0,1,8.12,8.12v36.809a8.12,8.12,0,0,1-8.12,8.12H944.62a8.12,8.12,0,0,1-8.12-8.12V798.62a8.12,8.12,0,0,1,8.12-8.12Z" transform="translate(-789.216 -547.992)" fill="#ccc"/>
      <path id="left_touch_pad" data-name="left touch pad" d="M941.892,842.864l42.176.34.14,10.825-42.4-.342a5.411,5.411,0,0,1-5.368-5.342h0A5.412,5.412,0,0,1,941.892,842.864Z" transform="translate(-789.221 -543.666)" fill="#ccc"/>
      <path id="right_touch_pad" data-name="right touch pad" d="M984.5,843.5v10.826h46.9a6.15,6.15,0,0,0,6.15-6.151h0a4.676,4.676,0,0,0-4.676-4.676Z" transform="translate(-785.25 -543.613)" fill="#ccc"/>
      <rect id="laft_hinge" data-name="laft hinge" width="17.322" height="21.652" transform="translate(52.013 85.527)" fill="#efefed"/>
      <rect id="right_hinge" data-name="right hinge" width="18.405" height="21.652" transform="translate(324.834 85.527)" fill="#efefed"/>
      <path id="outter_screen" data-name="outter screen" d="M808.526,566.5h379.687a8.063,8.063,0,0,1,7.516,10.981l-29.466,75.9a8.063,8.063,0,0,1-7.517,5.145H834.42a8.061,8.061,0,0,1-7.63-5.46l-25.9-75.9A8.063,8.063,0,0,1,808.526,566.5Z" transform="translate(-800.456 -566.5)" fill="#efefed"/>
      <path id="Inner_screen" data-name="Inner screen" d="M816.872,585.36l19.114,59.079a9.65,9.65,0,0,0,9.181,6.68H1144.76a11.426,11.426,0,0,0,10.917-8.055l17.465-56.555a6.956,6.956,0,0,0-6.646-9.009H822.59A6.01,6.01,0,0,0,816.872,585.36Z" transform="translate(-799.125 -565.591)" fill="#969690" stroke="#000" stroke-miterlimit="10" stroke-width="1" opacity="0.33"/>
      <rect id="Rectangle_8" data-name="Rectangle 8" width="72.536" height="5.413" rx="2.5" transform="translate(79.62 29.772)" fill="#ffec00"/>
      <rect id="Rectangle_9" data-name="Rectangle 9" width="72.536" height="5.413" rx="2.5" transform="translate(233.353 29.772)" fill="#ffec00"/>
      <rect id="Rectangle_10" data-name="Rectangle 10" width="51.966" height="5.413" rx="2.5" transform="translate(229.022 43.846)" fill="#3ce5d5"/>
      <rect id="Rectangle_11" data-name="Rectangle 11" width="72.536" height="5.413" rx="2.5" transform="translate(252.84 54.672)" fill="#f50"/>
      <rect id="Rectangle_12" data-name="Rectangle 12" width="48.718" height="5.413" rx="2.5" transform="translate(252.84 65.499)" fill="#0043ff"/>
      <rect id="Rectangle_13" data-name="Rectangle 13" width="37.892" height="5.413" rx="2.5" transform="translate(79.62 43.846)" fill="#43d6dd"/>
      <rect id="Rectangle_14" data-name="Rectangle 14" width="72.536" height="5.413" rx="2.5" transform="translate(95.859 57.92)" fill="#ba00ff"/>
      <rect id="Rectangle_15" data-name="Rectangle 15" width="72.536" height="5.413" rx="2.5" transform="translate(81.785 71.994)" fill="#00ff30"/>
      <path id="Path_110" data-name="Path 110" d="M817.009,585.661l22.3,65.5h310.966L822.422,577s-6.5,4.33-5.413,8.661" transform="translate(-799.099 -565.632)" fill="#f2f2f2" opacity="0.42"/>
      <g id="Group_19" data-name="Group 19" transform="translate(51.472 125.043)">
        <rect id="Rectangle_16" data-name="Rectangle 16" width="14.074" height="11.909" rx="3.862" fill="#ccc"/>
        <rect id="Rectangle_17" data-name="Rectangle 17" width="14.074" height="15.157" rx="3.862" transform="translate(1.083 16.239)" fill="#ccc"/>
        <rect id="Rectangle_18" data-name="Rectangle 18" width="14.074" height="15.157" rx="3.862" transform="translate(19.487 16.239)" fill="#ccc"/>
        <rect id="Rectangle_19" data-name="Rectangle 19" width="14.074" height="15.157" rx="3.862" transform="translate(38.974 16.239)" fill="#ccc"/>
        <rect id="Rectangle_20" data-name="Rectangle 20" width="14.074" height="15.157" rx="3.862" transform="translate(57.379 16.239)" fill="#ccc"/>
        <rect id="Rectangle_21" data-name="Rectangle 21" width="14.074" height="15.157" rx="3.862" transform="translate(75.784 16.239)" fill="#ccc"/>
        <rect id="Rectangle_22" data-name="Rectangle 22" width="14.074" height="15.157" rx="3.862" transform="translate(94.188 16.239)" fill="#ccc"/>
        <rect id="Rectangle_23" data-name="Rectangle 23" width="14.074" height="15.157" rx="3.862" transform="translate(113.675 16.239)" fill="#ccc"/>
        <rect id="Rectangle_24" data-name="Rectangle 24" width="14.074" height="15.157" rx="3.862" transform="translate(130.997 16.239)" fill="#ccc"/>
        <rect id="Rectangle_25" data-name="Rectangle 25" width="14.074" height="15.157" rx="3.862" transform="translate(150.485 16.239)" fill="#ccc"/>
        <rect id="Rectangle_26" data-name="Rectangle 26" width="14.074" height="15.157" rx="3.862" transform="translate(169.972 16.239)" fill="#ccc"/>
        <rect id="Rectangle_27" data-name="Rectangle 27" width="14.074" height="15.157" rx="3.862" transform="translate(188.377 16.239)" fill="#ccc"/>
        <rect id="Rectangle_28" data-name="Rectangle 28" width="14.074" height="15.157" rx="3.862" transform="translate(206.781 16.239)" fill="#ccc"/>
        <rect id="Rectangle_29" data-name="Rectangle 29" width="14.074" height="15.157" rx="3.862" transform="translate(226.268 15.157)" fill="#ccc"/>
        <rect id="Rectangle_30" data-name="Rectangle 30" width="32.479" height="15.157" rx="3.862" transform="translate(243.59 16.239)" fill="#ccc"/>
        <rect id="Rectangle_31" data-name="Rectangle 31" width="14.074" height="15.157" rx="3.862" transform="translate(279.317 16.239)" fill="#ccc"/>
        <rect id="Rectangle_32" data-name="Rectangle 32" width="14.074" height="15.157" rx="3.862" transform="translate(279.317 34.644)" fill="#ccc"/>
        <rect id="Rectangle_33" data-name="Rectangle 33" width="14.074" height="15.157" rx="3.862" transform="translate(279.317 53.049)" fill="#ccc"/>
        <rect id="Rectangle_34" data-name="Rectangle 34" width="14.074" height="15.157" rx="3.862" transform="translate(279.317 72.536)" fill="#ccc"/>
        <rect id="Rectangle_35" data-name="Rectangle 35" width="14.074" height="15.157" rx="3.862" transform="translate(279.317 89.858)" fill="#ccc"/>
        <rect id="Rectangle_36" data-name="Rectangle 36" width="14.074" height="15.157" rx="3.862" transform="translate(260.912 89.858)" fill="#ccc"/>
        <rect id="Rectangle_37" data-name="Rectangle 37" width="14.074" height="15.157" rx="3.862" transform="translate(260.912 70.371)" fill="#ccc"/>
        <rect id="Rectangle_38" data-name="Rectangle 38" width="14.074" height="15.157" rx="3.862" transform="translate(240.342 34.644)" fill="#ccc"/>
        <rect id="Rectangle_39" data-name="Rectangle 39" width="18.405" height="15.157" rx="3.862" transform="translate(256.582 34.644)" fill="#ccc"/>
        <rect id="Rectangle_40" data-name="Rectangle 40" width="14.074" height="15.157" rx="3.862" transform="translate(218.69 34.644)" fill="#ccc"/>
        <rect id="Rectangle_41" data-name="Rectangle 41" width="14.074" height="15.157" rx="3.862" transform="translate(199.203 34.644)" fill="#ccc"/>
        <rect id="Rectangle_42" data-name="Rectangle 42" width="14.074" height="15.157" rx="3.862" transform="translate(180.798 34.644)" fill="#ccc"/>
        <rect id="Rectangle_43" data-name="Rectangle 43" width="14.074" height="15.157" rx="3.862" transform="translate(162.394 34.644)" fill="#ccc"/>
        <rect id="Rectangle_44" data-name="Rectangle 44" width="14.074" height="15.157" rx="3.862" transform="translate(142.906 34.644)" fill="#ccc"/>
        <rect id="Rectangle_45" data-name="Rectangle 45" width="14.074" height="15.157" rx="3.862" transform="translate(123.419 34.644)" fill="#ccc"/>
        <rect id="Rectangle_46" data-name="Rectangle 46" width="14.074" height="15.157" rx="3.862" transform="translate(106.097 34.644)" fill="#ccc"/>
        <rect id="Rectangle_47" data-name="Rectangle 47" width="14.074" height="15.157" rx="3.862" transform="translate(85.527 34.644)" fill="#ccc"/>
        <rect id="Rectangle_48" data-name="Rectangle 48" width="14.074" height="15.157" rx="3.862" transform="translate(67.123 34.644)" fill="#ccc"/>
        <rect id="Rectangle_49" data-name="Rectangle 49" width="14.074" height="15.157" rx="3.862" transform="translate(46.553 34.644)" fill="#ccc"/>
        <rect id="Rectangle_50" data-name="Rectangle 50" width="14.074" height="15.157" rx="3.862" transform="translate(29.231 34.644)" fill="#ccc"/>
        <rect id="Rectangle_51" data-name="Rectangle 51" width="14.074" height="15.157" rx="3.862" transform="translate(36.809 53.049)" fill="#ccc"/>
        <rect id="Rectangle_52" data-name="Rectangle 52" width="14.074" height="15.157" rx="3.862" transform="translate(46.553 70.371)" fill="#ccc"/>
        <rect id="Rectangle_53" data-name="Rectangle 53" width="14.074" height="15.157" rx="3.862" transform="translate(24.9 89.858)" fill="#ccc"/>
        <rect id="Rectangle_54" data-name="Rectangle 54" width="14.074" height="15.157" rx="3.862" transform="translate(44.388 89.858)" fill="#ccc"/>
        <rect id="Rectangle_55" data-name="Rectangle 55" width="14.074" height="15.157" rx="3.862" transform="translate(62.792 89.858)" fill="#ccc"/>
        <rect id="Rectangle_56" data-name="Rectangle 56" width="14.074" height="15.157" rx="3.862" transform="translate(81.738 105.556) rotate(-90)" fill="#ccc"/>
        <rect id="Rectangle_57" data-name="Rectangle 57" width="15.157" height="70.371" rx="3.862" transform="translate(99.601 106.097) rotate(-90)" fill="#ccc"/>
        <rect id="Rectangle_58" data-name="Rectangle 58" width="14.074" height="15.157" rx="3.862" transform="translate(218.69 106.097) rotate(-90)" fill="#ccc"/>
        <rect id="Rectangle_59" data-name="Rectangle 59" width="14.074" height="15.157" rx="3.862" transform="translate(176.468 105.014) rotate(-90)" fill="#ccc"/>
        <rect id="Rectangle_60" data-name="Rectangle 60" width="14.074" height="15.157" rx="3.862" transform="translate(193.79 106.097) rotate(-90)" fill="#ccc"/>
        <rect id="Rectangle_61" data-name="Rectangle 61" width="14.074" height="15.157" rx="3.862" transform="translate(61.71 70.371)" fill="#ccc"/>
        <rect id="Rectangle_62" data-name="Rectangle 62" width="14.074" height="15.157" rx="3.862" transform="translate(82.279 70.371)" fill="#ccc"/>
        <rect id="Rectangle_63" data-name="Rectangle 63" width="14.074" height="15.157" rx="3.862" transform="translate(101.767 71.453)" fill="#ccc"/>
        <rect id="Rectangle_64" data-name="Rectangle 64" width="14.074" height="15.157" rx="3.862" transform="translate(119.089 70.371)" fill="#ccc"/>
        <rect id="Rectangle_65" data-name="Rectangle 65" width="14.074" height="15.157" rx="3.862" transform="translate(138.576 71.453)" fill="#ccc"/>
        <rect id="Rectangle_66" data-name="Rectangle 66" width="14.074" height="15.157" rx="3.862" transform="translate(158.063 71.453)" fill="#ccc"/>
        <rect id="Rectangle_67" data-name="Rectangle 67" width="14.074" height="15.157" rx="3.862" transform="translate(177.55 70.371)" fill="#ccc"/>
        <rect id="Rectangle_68" data-name="Rectangle 68" width="14.074" height="15.157" rx="3.862" transform="translate(193.79 70.371)" fill="#ccc"/>
        <rect id="Rectangle_69" data-name="Rectangle 69" width="14.074" height="15.157" rx="3.862" transform="translate(212.194 71.453)" fill="#ccc"/>
        <rect id="Rectangle_70" data-name="Rectangle 70" width="23.818" height="15.157" rx="3.862" transform="translate(232.764 71.453)" fill="#ccc"/>
        <rect id="Rectangle_71" data-name="Rectangle 71" width="14.074" height="15.157" rx="3.862" transform="translate(54.131 53.049)" fill="#ccc"/>
        <rect id="Rectangle_72" data-name="Rectangle 72" width="14.074" height="15.157" rx="3.862" transform="translate(71.453 53.049)" fill="#ccc"/>
        <rect id="Rectangle_73" data-name="Rectangle 73" width="14.074" height="15.157" rx="3.862" transform="translate(89.858 53.049)" fill="#ccc"/>
        <rect id="Rectangle_74" data-name="Rectangle 74" width="14.074" height="15.157" rx="3.862" transform="translate(109.345 53.049)" fill="#ccc"/>
        <rect id="Rectangle_75" data-name="Rectangle 75" width="14.074" height="15.157" rx="3.862" transform="translate(128.832 53.049)" fill="#ccc"/>
        <rect id="Rectangle_76" data-name="Rectangle 76" width="14.074" height="15.157" rx="3.862" transform="translate(147.237 53.049)" fill="#ccc"/>
        <rect id="Rectangle_77" data-name="Rectangle 77" width="14.074" height="15.157" rx="3.862" transform="translate(166.724 53.049)" fill="#ccc"/>
        <rect id="Rectangle_78" data-name="Rectangle 78" width="14.074" height="15.157" rx="3.862" transform="translate(185.129 53.049)" fill="#ccc"/>
        <rect id="Rectangle_79" data-name="Rectangle 79" width="14.074" height="15.157" rx="3.862" transform="translate(204.616 53.049)" fill="#ccc"/>
        <rect id="Rectangle_80" data-name="Rectangle 80" width="14.074" height="15.157" rx="3.862" transform="translate(226.268 53.049)" fill="#ccc"/>
        <rect id="Rectangle_81" data-name="Rectangle 81" width="31.396" height="15.157" rx="3.862" transform="translate(243.59 53.049)" fill="#ccc"/>
        <rect id="Rectangle_82" data-name="Rectangle 82" width="19.487" height="15.157" rx="3.862" transform="translate(1.083 89.858)" fill="#ccc"/>
        <rect id="Rectangle_83" data-name="Rectangle 83" width="23.818" height="15.157" rx="3.862" transform="translate(1.083 34.644)" fill="#ccc"/>
        <rect id="Rectangle_84" data-name="Rectangle 84" width="28.148" height="15.157" rx="3.862" transform="translate(1.083 53.049)" fill="#ccc"/>
        <rect id="Rectangle_85" data-name="Rectangle 85" width="42.222" height="15.157" rx="3.862" transform="translate(1.083 70.371)" fill="#ccc"/>
        <rect id="Rectangle_86" data-name="Rectangle 86" width="14.074" height="15.157" rx="3.862" transform="translate(243.59 89.858)" fill="#ccc"/>
        <rect id="Rectangle_87" data-name="Rectangle 87" width="14.074" height="11.909" rx="2.787" transform="translate(19.487)" fill="#ccc"/>
        <rect id="Rectangle_88" data-name="Rectangle 88" width="14.074" height="11.909" rx="2.787" transform="translate(36.809)" fill="#ccc"/>
        <rect id="Rectangle_89" data-name="Rectangle 89" width="14.074" height="11.909" rx="2.787" transform="translate(54.131 1.083)" fill="#ccc"/>
        <rect id="Rectangle_90" data-name="Rectangle 90" width="14.074" height="11.909" rx="2.787" transform="translate(71.453 1.083)" fill="#ccc"/>
        <rect id="Rectangle_91" data-name="Rectangle 91" width="14.074" height="11.909" rx="2.787" transform="translate(88.775 1.083)" fill="#ccc"/>
        <rect id="Rectangle_92" data-name="Rectangle 92" width="14.074" height="11.909" rx="2.787" transform="translate(106.097 1.083)" fill="#ccc"/>
        <rect id="Rectangle_93" data-name="Rectangle 93" width="14.074" height="11.909" rx="2.787" transform="translate(123.419 1.083)" fill="#ccc"/>
        <rect id="Rectangle_94" data-name="Rectangle 94" width="14.074" height="11.909" rx="2.787" transform="translate(139.658 1.083)" fill="#ccc"/>
        <rect id="Rectangle_95" data-name="Rectangle 95" width="14.074" height="11.909" rx="2.787" transform="translate(158.063 1.083)" fill="#ccc"/>
        <rect id="Rectangle_96" data-name="Rectangle 96" width="14.074" height="11.909" rx="2.787" transform="translate(174.302)" fill="#ccc"/>
        <rect id="Rectangle_97" data-name="Rectangle 97" width="14.074" height="11.909" rx="2.787" transform="translate(191.624 1.083)" fill="#ccc"/>
        <rect id="Rectangle_98" data-name="Rectangle 98" width="14.074" height="11.909" rx="2.787" transform="translate(208.946 1.083)" fill="#ccc"/>
        <rect id="Rectangle_99" data-name="Rectangle 99" width="14.074" height="11.909" rx="2.787" transform="translate(226.268 1.083)" fill="#ccc"/>
        <rect id="Rectangle_100" data-name="Rectangle 100" width="14.074" height="11.909" rx="2.787" transform="translate(243.59 1.083)" fill="#ccc"/>
        <rect id="Rectangle_101" data-name="Rectangle 101" width="14.074" height="11.909" rx="2.787" transform="translate(260.912 1.083)" fill="#ccc"/>
        <rect id="Rectangle_102" data-name="Rectangle 102" width="14.074" height="11.909" rx="2.787" transform="translate(280.4 1.083)" fill="#ccc"/>
      </g>
    </g>
  </g>
</svg>
