<svg xmlns="http://www.w3.org/2000/svg" viewBox="0 0 108.34 135.71"><defs><style>.cls-1{fill:#b2873b;stroke-width:1.99px;}.cls-1,.cls-2,.cls-3,.cls-5,.cls-6{stroke:#000;stroke-miterlimit:10;}.cls-2{fill:#333;}.cls-2,.cls-3,.cls-5,.cls-6{stroke-width:2px;}.cls-3{fill:#171819;}.cls-4{fill:#f8fcff;}.cls-5{fill:none;}.cls-6{fill:#fff;}.cls-7{fill:#d0c2a2;opacity:0.34;}</style></defs><title>laka-logo</title><g id="Layer_2" data-name="Layer 2"><g id="MAin_laptop_with_face" data-name="MAin laptop with face"><path class="cls-1" d="M18.15,42.73c16.71,3.06,45.54,10.72,75.44,0,0,0,12.68,73-6.06,83.74s-50.64,12.26-69.38-3.06,0-78.13,0-78.13Z"/><path class="cls-2" d="M10.55,84s3.07,23.49,29.11,24.51c0,0,16.34-10.21,28.09,0,0,0,28.08-3.06,29.1-24.51,0,0,10.94,54.13-42.27,50.55S13.11,103.39,10.55,84Z"/><path class="cls-3" d="M9,81,17.35,41.7s51.32,14.3,74.83,0c0,0,6.66,38.3,5.13,39.32S105,76.43,105,81s7.66-58.72-4.59-61.27c0,0-27.07-32.68-74.56-11.75,0,0-35.74,5.11-21.44,71Z"/><path class="cls-1" d="M9.45,80.09s-11-7.41-7.91,11.23c0,0,4.6,10,7.91,6.9Z"/><path class="cls-1" d="M98.51,79.66s8.85-4.43,8.68,7c0,0-3.74,13.1-8.68,11.91Z"/><path class="cls-2" d="M88.68,34.77A14.36,14.36,0,0,1,81,34.43a13.79,13.79,0,0,0,6.45-2.73,6.46,6.46,0,0,1-5.35-1.09,11.27,11.27,0,0,0,7.11-3,10.54,10.54,0,0,1-7.3-1.1,25.05,25.05,0,0,0,9.31-2.59,18.32,18.32,0,0,1-9.48-2,54.12,54.12,0,0,0,6.57-2.13,10.34,10.34,0,0,1-9.59-3.54A25,25,0,0,1,62.49,29.53,27.45,27.45,0,0,0,69,31a19.43,19.43,0,0,1-4.83,2.5,15.32,15.32,0,0,1,6.74,1,21.47,21.47,0,0,1-15,3.4,61.5,61.5,0,0,0,16.85,1.19l-3,2.24c2-1.35,6.25-1.3,8.63-2.17Q83.6,37.17,88.68,34.77Z"/><path class="cls-2" d="M8,27.72a34.83,34.83,0,0,0-3.38,22,8.78,8.78,0,0,1,3.32-7A10.21,10.21,0,0,0,7.24,48,10.3,10.3,0,0,1,9.6,43.64l-.36,2.61a48,48,0,0,1,1.82-7.48c.69-2.1,1.82-4.43,4-5a9.65,9.65,0,0,0-4,4.76,8.29,8.29,0,0,1,5-9,5.85,5.85,0,0,0-2.78,1A15.33,15.33,0,0,1,24,24.41L17.16,25a22.24,22.24,0,0,1,11.49-5.64,7.55,7.55,0,0,1-3.38-.61c-.48-.2-1-.56-1-1.09s.51-.85,1-1.1a61.4,61.4,0,0,1,7.5-3.48c-4.6.5-9.42,1.39-12.94,4.4s-5.46,8-9.68,10.14c-1.25.62-2.9,1.31-2.85,2.7"/><circle cx="36.67" cy="75.15" r="4.6"/><path class="cls-4" d="M34.59,72.84C33.83,73.37,33,74,32.93,75a3.06,3.06,0,0,0,.81,1.92,1.92,1.92,0,0,0,.65.65,2,2,0,0,0,1.74-.23,1.62,1.62,0,0,0,.58-.38,1.53,1.53,0,0,0,.24-.85,3.69,3.69,0,0,0-.52-2.72,1.92,1.92,0,0,0-2.68-.12"/><path class="cls-4" d="M38.56,76.68c-.16-.3-.69,0-.6.35a.76.76,0,0,0,.84.43.9.9,0,0,0,.39-.13c.36-.28.08-1-.37-1a1.13,1.13,0,0,0-1.1.66"/><circle cx="75.28" cy="76.29" r="4.6"/><path class="cls-4" d="M77.62,74.11a3.11,3.11,0,0,0-2.1-1.55,3.16,3.16,0,0,0-1.93.71,1.83,1.83,0,0,0-.66.6,1.79,1.79,0,0,0,.21,1.6,1.47,1.47,0,0,0,.38.54,1.6,1.6,0,0,0,.84.23,3.94,3.94,0,0,0,2.73-.44,1.67,1.67,0,0,0,.15-2.47"/><path class="cls-4" d="M73.73,78.16c.3-.15,0-.69-.34-.6a.87.87,0,0,0-.31,1.22c.27.37.94.1,1-.35a1.15,1.15,0,0,0-.64-1.11"/><path class="cls-5" d="M29.12,69.67a17.61,17.61,0,0,1,1.45-1.76,8,8,0,0,1,6-2.34,15.52,15.52,0,0,1,3,.52l4.64,1.12"/><path class="cls-5" d="M68.63,67.24A8.69,8.69,0,0,1,74.9,65.4c3.22.34,5.94,2.43,8.44,4.48"/><path class="cls-5" d="M50.72,88.72a5.52,5.52,0,0,0-3,3.21c-.85,1.85-1.29,4.13-.22,5.86a5.32,5.32,0,0,0,1.85,1.71A8.14,8.14,0,0,0,61.5,93.85"/><path class="cls-6" d="M44.21,117.67s10.09,10.73,19.92,0"/><path class="cls-7" d="M30,46.17c0-.06-15.3,45.39-9.49,51L11.92,85.55l7.61-41.63h.33Z"/></g></g></svg>