<svg xmlns="http://www.w3.org/2000/svg" viewBox="0 0 283.93 265.71"><defs><style>.cls-1{fill:#605ce0;stroke:#e7c71e;}.cls-1,.cls-13,.cls-14,.cls-15,.cls-17,.cls-18,.cls-2,.cls-3,.cls-4,.cls-5,.cls-6,.cls-7,.cls-8{stroke-miterlimit:10;}.cls-2{fill:#f2f2f2;}.cls-2,.cls-3,.cls-4,.cls-5,.cls-6,.cls-7,.cls-8{stroke:#324793;}.cls-3{fill:#b036c1;}.cls-4{fill:#a33aa3;}.cls-5{fill:#ac58dd;}.cls-6{fill:#1c445d;}.cls-7{fill:#51b8e0;}.cls-8{fill:#c5e9fc;stroke-width:9px;}.cls-9{fill:#bfbfbf;opacity:0.16;}.cls-10{fill:#f3ff03;}.cls-11{fill:#1cf75f;}.cls-12{fill:#c61bef;}.cls-13{fill:#b2873b;stroke-width:1.99px;}.cls-13,.cls-14,.cls-15,.cls-17,.cls-18{stroke:#000;}.cls-14{fill:#333;}.cls-14,.cls-15,.cls-17,.cls-18{stroke-width:2px;}.cls-15{fill:#171819;}.cls-16{fill:#f8fcff;}.cls-17{fill:none;}.cls-18{fill:#fff;}.cls-19{fill:#d0c2a2;opacity:0.34;}</style></defs><title>main-logo</title><g id="Layer_2" data-name="Layer 2"><g id="MAin_laptop_with_face" data-name="MAin laptop with face"><path class="cls-1" d="M15.59,239.58S-.24,243.93.53,247.76,22.23,261.55,73,263.33s91.91,2.3,92.68,1.53,101.87-2.8,100.34-8.68c0,0,36.76-7.67,3.32-16.6S15.59,239.58,15.59,239.58Z"/><polygon class="cls-2" points="59.33 66.69 59.33 172.69 216.91 172.69 216.91 65.46 59.33 66.69"/><path class="cls-3" d="M46.74,188h186a4,4,0,0,0,4-3.95V53.56a4,4,0,0,0-3.93-4L44.85,48.38a4,4,0,0,0-4,4V184.06a4,4,0,0,0,4,3.95Z"/><path class="cls-4" d="M25.24,230.65H260.65a3,3,0,0,0,2.21-5.08l-25.52-27.4a3,3,0,0,0-2.21-1H44.48A3,3,0,0,0,42,198.49l-19.25,27.4A3,3,0,0,0,25.24,230.65Z"/><path class="cls-5" d="M17.89,242v-4.84a4.72,4.72,0,0,1,4.72-4.72H261.34a4.72,4.72,0,0,1,4.72,4.72v4.05a4.73,4.73,0,0,1-4.71,4.72l-238.72.79A4.72,4.72,0,0,1,17.89,242Z"/><polygon class="cls-6" points="48.27 215.59 233.12 215.59 226.48 205.89 54.4 205.89 48.27 215.59"/><polygon class="cls-6" points="111.33 227.21 169.8 227.21 167.51 218.01 114.27 218.01 111.33 227.21"/><path class="cls-7" d="M53.63,64.06V173.84a4,4,0,0,0,4,4H222.53a4,4,0,0,0,3.95-4V64.06a4,4,0,0,0-3.95-4H57.59A4,4,0,0,0,53.63,64.06ZM216.91,172.69H62.19a4,4,0,0,1-4-3.95V69.42a4,4,0,0,1,4-4H216.91a4,4,0,0,1,4,4v99.32A4,4,0,0,1,216.91,172.69Z"/><path class="cls-8" d="M53.63,66.93v104A6.34,6.34,0,0,0,60,177.26H218.17a6.34,6.34,0,0,0,6.35-6.34v-104a6.34,6.34,0,0,0-6.35-6.34H60a6.34,6.34,0,0,0-4.18,1.57h0A6.33,6.33,0,0,0,53.63,66.93Z"/><polygon class="cls-9" points="40.87 52.34 236.7 184.06 40.87 188.01 40.87 52.34"/><rect class="cls-10" x="64.52" y="115.26" width="75.57" height="5.75" rx="2.88"/><rect class="cls-11" x="74.5" y="132.07" width="122.55" height="9" rx="4.5"/><rect class="cls-12" x="64.52" y="146.89" width="75.57" height="5.75" rx="2.88"/><rect class="cls-10" x="64.52" y="160.69" width="75.57" height="5.75" rx="2.88"/><path class="cls-13" d="M102.1,42.73c16.71,3.06,45.54,10.72,75.44,0,0,0,12.68,73-6.06,83.74s-50.64,12.26-69.38-3.06,0-78.13,0-78.13Z"/><path class="cls-14" d="M94.5,84s3.07,23.49,29.11,24.51c0,0,16.34-10.21,28.09,0,0,0,28.08-3.06,29.1-24.51,0,0,10.94,54.13-42.27,50.55S97.06,103.39,94.5,84Z"/><path class="cls-15" d="M92.92,81l8.37-39.32s51.33,14.3,74.84,0c0,0,6.66,38.3,5.13,39.32s7.66-4.59,7.66,0,7.66-58.72-4.59-61.27c0,0-27.07-32.68-74.56-11.75,0,0-35.74,5.11-21.44,71Z"/><path class="cls-13" d="M93.4,80.09s-11-7.41-7.91,11.23c0,0,4.6,10,7.91,6.9Z"/><path class="cls-13" d="M182.46,79.66s8.85-4.43,8.68,7c0,0-3.74,13.1-8.68,11.91Z"/><path class="cls-14" d="M172.63,34.77a14.36,14.36,0,0,1-7.69-.34,13.79,13.79,0,0,0,6.45-2.73A6.49,6.49,0,0,1,166,30.61a11.27,11.27,0,0,0,7.12-3,10.54,10.54,0,0,1-7.3-1.1,25.05,25.05,0,0,0,9.31-2.59,18.3,18.3,0,0,1-9.48-2,54.12,54.12,0,0,0,6.57-2.13,10.34,10.34,0,0,1-9.59-3.54,25,25,0,0,1-16.22,13.28,27.45,27.45,0,0,0,6.5,1.47,19.43,19.43,0,0,1-4.83,2.5,15.32,15.32,0,0,1,6.74,1,21.47,21.47,0,0,1-15,3.4,61.5,61.5,0,0,0,16.85,1.19l-3,2.24c2-1.35,6.25-1.3,8.63-2.17Q167.55,37.17,172.63,34.77Z"/><path class="cls-14" d="M91.9,27.72a34.83,34.83,0,0,0-3.38,22,8.75,8.75,0,0,1,3.32-7A10.21,10.21,0,0,0,91.19,48a10.3,10.3,0,0,1,2.36-4.37l-.36,2.61A46.89,46.89,0,0,1,95,38.77c.69-2.1,1.82-4.43,4-5a9.65,9.65,0,0,0-4,4.76,8.29,8.29,0,0,1,4.95-9,5.85,5.85,0,0,0-2.78,1A15.33,15.33,0,0,1,108,24.41l-6.84.62a22.24,22.24,0,0,1,11.49-5.64,7.53,7.53,0,0,1-3.38-.61c-.48-.2-1-.56-1-1.09s.51-.85,1-1.1a61.4,61.4,0,0,1,7.5-3.48c-4.6.5-9.42,1.39-12.94,4.4s-5.46,8-9.68,10.14c-1.25.62-2.9,1.31-2.85,2.7"/><circle cx="120.62" cy="75.15" r="4.6"/><path class="cls-16" d="M118.54,72.84c-.76.53-1.6,1.19-1.66,2.12a3.1,3.1,0,0,0,.8,1.92,2,2,0,0,0,.66.65,2,2,0,0,0,1.74-.23,1.13,1.13,0,0,0,.82-1.23,3.69,3.69,0,0,0-.52-2.72,1.93,1.93,0,0,0-2.69-.12"/><path class="cls-16" d="M122.51,76.68c-.16-.3-.69,0-.6.35a.76.76,0,0,0,.84.43.9.9,0,0,0,.39-.13c.36-.28.08-1-.37-1a1.13,1.13,0,0,0-1.1.66"/><circle cx="159.23" cy="76.29" r="4.6"/><path class="cls-16" d="M161.57,74.11a3.11,3.11,0,0,0-2.1-1.55,3.16,3.16,0,0,0-1.93.71,1.83,1.83,0,0,0-.66.6,1.79,1.79,0,0,0,.21,1.6,1.47,1.47,0,0,0,.38.54,1.6,1.6,0,0,0,.84.23A3.94,3.94,0,0,0,161,75.8a1.67,1.67,0,0,0,.15-2.47"/><path class="cls-16" d="M157.68,78.16c.3-.15,0-.69-.34-.6a.87.87,0,0,0-.31,1.22c.27.37.94.1,1-.35a1.14,1.14,0,0,0-.65-1.11"/><path class="cls-17" d="M113.07,69.67a16.33,16.33,0,0,1,1.45-1.76,8,8,0,0,1,6-2.34,15.52,15.52,0,0,1,3,.52l4.64,1.12"/><path class="cls-17" d="M152.58,67.24a8.69,8.69,0,0,1,6.27-1.84c3.22.34,5.94,2.43,8.44,4.48"/><path class="cls-17" d="M134.66,88.72a5.53,5.53,0,0,0-3,3.21c-.86,1.85-1.29,4.13-.22,5.86a5.32,5.32,0,0,0,1.85,1.71,8.14,8.14,0,0,0,12.18-5.65"/><path class="cls-18" d="M128.16,117.67s10.09,10.73,19.91,0"/><path class="cls-19" d="M113.94,46.17c0-.06-15.3,45.39-9.49,51L95.87,85.55l7.61-41.63h.33Z"/></g></g></svg>